<?xml version="1.0" encoding="UTF-8"?>
<svg xmlns="http://www.w3.org/2000/svg" xmlns:xlink="http://www.w3.org/1999/xlink"
     width="300" height="80" viewBox="0 0 300 80">
<defs>
</defs>
<rect x="0" y="28.5" width="5" height="23" fill="#FF0078" />
<rect x="5" y="27.0" width="5" height="26" fill="#FF0078" />
<rect x="10" y="27.0" width="5" height="26" fill="#FF0078" />
<rect x="15" y="26.5" width="5" height="27" fill="#FF0078" />
<rect x="20" y="26.5" width="5" height="27" fill="#FF0078" />
<rect x="25" y="26.5" width="5" height="27" fill="#FF0078" />
<rect x="30" y="26.5" width="5" height="27" fill="#FF0078" />
<rect x="35" y="23.0" width="5" height="34" fill="#FF0078" />
<rect x="40" y="10.0" width="5" height="60" fill="#FF0078" />
<rect x="45" y="4.0" width="5" height="72" fill="#FF0078" />
<rect x="50" y="6.0" width="5" height="68" fill="#FF0078" />
<rect x="55" y="7.5" width="5" height="65" fill="#FF0078" />
<rect x="60" y="10.0" width="5" height="60" fill="#FF0078" />
<rect x="65" y="6.0" width="5" height="68" fill="#FF0078" />
<rect x="70" y="1.5" width="5" height="77" fill="#FF0078" />
<rect x="75" y="10.0" width="5" height="60" fill="#FF0078" />
<rect x="80" y="7.5" width="5" height="65" fill="#FF0078" />
<rect x="85" y="10.0" width="5" height="60" fill="#FF0078" />
<rect x="90" y="2.5" width="5" height="75" fill="#FF0078" />
<rect x="95" y="10.0" width="5" height="60" fill="#FF0078" />
<rect x="100" y="7.0" width="5" height="66" fill="#FF0078" />
<rect x="105" y="4.0" width="5" height="72" fill="#FF0078" />
<rect x="110" y="0.0" width="5" height="80" fill="#FF0078" />
<rect x="115" y="23.5" width="5" height="33" fill="#FF0078" />
<rect x="120" y="27.5" width="5" height="25" fill="#FF0078" />
<rect x="125" y="28.0" width="5" height="24" fill="#FF0078" />
<rect x="130" y="27.0" width="5" height="26" fill="#FF0078" />
<rect x="135" y="27.5" width="5" height="25" fill="#FF0078" />
<rect x="140" y="27.5" width="5" height="25" fill="#FF0078" />
<rect x="145" y="27.5" width="5" height="25" fill="#FF0078" />
<rect x="150" y="27.0" width="5" height="26" fill="#FF0078" />
<rect x="155" y="26.0" width="5" height="28" fill="#FF0078" />
<rect x="160" y="26.0" width="5" height="28" fill="#FF0078" />
<rect x="165" y="24.5" width="5" height="31" fill="#FF0078" />
<rect x="170" y="23.5" width="5" height="33" fill="#FF0078" />
<rect x="175" y="25.0" width="5" height="30" fill="#FF0078" />
<rect x="180" y="25.5" width="5" height="29" fill="#FF0078" />
<rect x="185" y="24.0" width="5" height="32" fill="#FF0078" />
<rect x="190" y="22.5" width="5" height="35" fill="#FF0078" />
<rect x="195" y="26.5" width="5" height="27" fill="#FF0078" />
<rect x="200" y="12.5" width="5" height="55" fill="#FF0078" />
<rect x="205" y="8.5" width="5" height="63" fill="#FF0078" />
<rect x="210" y="7.5" width="5" height="65" fill="#FF0078" />
<rect x="215" y="6.0" width="5" height="68" fill="#FF0078" />
<rect x="220" y="10.0" width="5" height="60" fill="#FF0078" />
<rect x="225" y="7.0" width="5" height="66" fill="#FF0078" />
<rect x="230" y="8.5" width="5" height="63" fill="#FF0078" />
<rect x="235" y="6.0" width="5" height="68" fill="#FF0078" />
<rect x="240" y="9.5" width="5" height="61" fill="#FF0078" />
<rect x="245" y="10.0" width="5" height="60" fill="#FF0078" />
<rect x="250" y="3.0" width="5" height="74" fill="#FF0078" />
<rect x="255" y="5.5" width="5" height="69" fill="#FF0078" />
<rect x="260" y="7.5" width="5" height="65" fill="#FF0078" />
<rect x="265" y="9.5" width="5" height="61" fill="#FF0078" />
<rect x="270" y="3.0" width="5" height="74" fill="#FF0078" />
<rect x="275" y="18.0" width="5" height="44" fill="#FF0078" />
<rect x="280" y="27.5" width="5" height="25" fill="#FF0078" />
<rect x="285" y="28.5" width="5" height="23" fill="#FF0078" />
<rect x="290" y="28.0" width="5" height="24" fill="#FF0078" />
</svg>