<?xml version="1.0" encoding="UTF-8"?>
<svg xmlns="http://www.w3.org/2000/svg" xmlns:xlink="http://www.w3.org/1999/xlink"
     width="300" height="80" viewBox="0 0 300 80">
<defs>
</defs>
<rect x="0" y="27.0" width="10" height="26" fill="#FF0078" />
<rect x="12" y="25.5" width="10" height="29" fill="#FF0078" />
<rect x="24" y="26.0" width="10" height="28" fill="#FF0078" />
<rect x="36" y="14.5" width="10" height="51" fill="#FF0078" />
<rect x="48" y="1.5" width="10" height="77" fill="#FF0078" />
<rect x="60" y="8.0" width="10" height="64" fill="#FF0078" />
<rect x="72" y="5.0" width="10" height="70" fill="#FF0078" />
<rect x="84" y="5.5" width="10" height="69" fill="#FF0078" />
<rect x="96" y="5.0" width="10" height="70" fill="#FF0078" />
<rect x="108" y="0.0" width="10" height="80" fill="#FF0078" />
<rect x="120" y="26.0" width="10" height="28" fill="#FF0078" />
<rect x="132" y="26.5" width="10" height="27" fill="#FF0078" />
<rect x="144" y="26.5" width="10" height="27" fill="#FF0078" />
<rect x="156" y="25.5" width="10" height="29" fill="#FF0078" />
<rect x="168" y="24.0" width="10" height="32" fill="#FF0078" />
<rect x="180" y="24.0" width="10" height="32" fill="#FF0078" />
<rect x="192" y="22.5" width="10" height="35" fill="#FF0078" />
<rect x="204" y="16.0" width="10" height="48" fill="#FF0078" />
<rect x="216" y="3.0" width="10" height="74" fill="#FF0078" />
<rect x="228" y="8.5" width="10" height="63" fill="#FF0078" />
<rect x="240" y="5.0" width="10" height="70" fill="#FF0078" />
<rect x="252" y="6.5" width="10" height="67" fill="#FF0078" />
<rect x="264" y="3.0" width="10" height="74" fill="#FF0078" />
<rect x="276" y="5.5" width="10" height="69" fill="#FF0078" />
<rect x="288" y="26.0" width="10" height="28" fill="#FF0078" />
</svg>