<?xml version="1.0" encoding="UTF-8"?>
<svg xmlns="http://www.w3.org/2000/svg" xmlns:xlink="http://www.w3.org/1999/xlink"
     width="300" height="80" viewBox="0 0 300 80">
<defs>
</defs>
<rect x="0" y="33.5" width="10" height="13" fill="#003300" />
<rect x="12" y="33.0" width="10" height="14" fill="#003300" />
<rect x="24" y="33.0" width="10" height="14" fill="#003300" />
<rect x="36" y="27.5" width="10" height="25" fill="#003300" />
<rect x="48" y="20.5" width="10" height="39" fill="#003300" />
<rect x="60" y="24.0" width="10" height="32" fill="#003300" />
<rect x="72" y="22.5" width="10" height="35" fill="#003300" />
<rect x="84" y="22.5" width="10" height="35" fill="#003300" />
<rect x="96" y="22.5" width="10" height="35" fill="#003300" />
<rect x="108" y="20.0" width="10" height="40" fill="#003300" />
<rect x="120" y="33.0" width="10" height="14" fill="#003300" />
<rect x="132" y="33.5" width="10" height="13" fill="#003300" />
<rect x="144" y="33.5" width="10" height="13" fill="#003300" />
<rect x="156" y="32.5" width="10" height="15" fill="#003300" />
<rect x="168" y="32.0" width="10" height="16" fill="#003300" />
<rect x="180" y="32.0" width="10" height="16" fill="#003300" />
<rect x="192" y="31.5" width="10" height="17" fill="#003300" />
<rect x="204" y="28.0" width="10" height="24" fill="#003300" />
<rect x="216" y="21.5" width="10" height="37" fill="#003300" />
<rect x="228" y="24.0" width="10" height="32" fill="#003300" />
<rect x="240" y="22.5" width="10" height="35" fill="#003300" />
<rect x="252" y="23.0" width="10" height="34" fill="#003300" />
<rect x="264" y="21.5" width="10" height="37" fill="#003300" />
<rect x="276" y="22.5" width="10" height="35" fill="#003300" />
<rect x="288" y="33.0" width="10" height="14" fill="#003300" />
</svg>