<?xml version="1.0" encoding="UTF-8"?>
<svg xmlns="http://www.w3.org/2000/svg" xmlns:xlink="http://www.w3.org/1999/xlink"
     width="300" height="80" viewBox="0 0 300 80">
<defs>
</defs>
<rect x="2" y="26.0" width="8.714285714285714" height="28" fill="#FF0078" />
<rect x="12.714285714285714" y="24.5" width="8.714285714285714" height="31" fill="#FF0078" />
<rect x="23.428571428571427" y="24.5" width="8.714285714285714" height="31" fill="#FF0078" />
<rect x="34.14285714285714" y="17.5" width="8.714285714285714" height="45" fill="#FF0078" />
<rect x="44.857142857142854" y="1.5" width="8.714285714285714" height="77" fill="#FF0078" />
<rect x="55.57142857142857" y="3.5" width="8.714285714285714" height="73" fill="#FF0078" />
<rect x="66.28571428571428" y="1.0" width="8.714285714285714" height="78" fill="#FF0078" />
<rect x="76.99999999999999" y="5.0" width="8.714285714285714" height="70" fill="#FF0078" />
<rect x="87.7142857142857" y="0.0" width="8.714285714285714" height="80" fill="#FF0078" />
<rect x="98.4285714285714" y="5.5" width="8.714285714285714" height="69" fill="#FF0078" />
<rect x="109.14285714285711" y="3.0" width="8.714285714285714" height="74" fill="#FF0078" />
<rect x="119.85714285714282" y="29.0" width="8.714285714285714" height="22" fill="#FF0078" />
<rect x="130.57142857142853" y="27.0" width="8.714285714285714" height="26" fill="#FF0078" />
<rect x="141.28571428571425" y="27.5" width="8.714285714285714" height="25" fill="#FF0078" />
<rect x="151.99999999999997" y="22.0" width="8.714285714285714" height="36" fill="#FF0078" />
<rect x="162.7142857142857" y="19.0" width="8.714285714285714" height="42" fill="#FF0078" />
<rect x="173.42857142857142" y="16.0" width="8.714285714285714" height="48" fill="#FF0078" />
<rect x="184.14285714285714" y="17.0" width="8.714285714285714" height="46" fill="#FF0078" />
<rect x="194.85714285714286" y="16.0" width="8.714285714285714" height="48" fill="#FF0078" />
<rect x="205.57142857142858" y="2.0" width="8.714285714285714" height="76" fill="#FF0078" />
<rect x="216.2857142857143" y="2.5" width="8.714285714285714" height="75" fill="#FF0078" />
<rect x="227.00000000000003" y="1.0" width="8.714285714285714" height="78" fill="#FF0078" />
<rect x="237.71428571428575" y="4.5" width="8.714285714285714" height="71" fill="#FF0078" />
<rect x="248.42857142857147" y="0.5" width="8.714285714285714" height="79" fill="#FF0078" />
<rect x="259.14285714285717" y="5.5" width="8.714285714285714" height="69" fill="#FF0078" />
<rect x="269.8571428571429" y="3.5" width="8.714285714285714" height="73" fill="#FF0078" />
<rect x="280.5714285714286" y="30.0" width="8.714285714285714" height="20" fill="#FF0078" />
<rect x="291.28571428571433" y="38.5" width="8.714285714285714" height="3" fill="#FF0078" />
</svg>